<?xml version="1.0" encoding="UTF-8"?>
<svg id="Layer_2" data-name="Layer 2" xmlns="http://www.w3.org/2000/svg" viewBox="0 0 354.56 72.42">
  <g id="Layer_1-2" data-name="Layer 1">
    <g>
      <path d="M29.55,13.87c-1.21-2.32-3.41-3.48-6.62-3.48-1.76,0-3.22.47-4.36,1.42-1.14.95-2.04,2.48-2.69,4.61-.65,2.12-1.11,4.9-1.37,8.33-.26,3.43-.39,7.63-.39,12.59,0,5.29.18,9.57.54,12.84.36,3.27.91,5.8,1.67,7.59.75,1.8,1.7,3.01,2.84,3.63,1.14.62,2.47.93,3.97.93,1.24,0,2.4-.21,3.48-.64s2.01-1.27,2.79-2.55c.78-1.27,1.4-3.07,1.86-5.39.46-2.32.69-5.37.69-9.16h14.11c0,3.79-.29,7.38-.88,10.78-.59,3.4-1.68,6.37-3.28,8.92-1.6,2.55-3.86,4.54-6.76,5.98-2.91,1.44-6.68,2.16-11.32,2.16-5.29,0-9.51-.85-12.64-2.55-3.14-1.7-5.54-4.15-7.2-7.35s-2.74-7.02-3.23-11.47c-.49-4.44-.73-9.34-.73-14.7s.24-10.18.73-14.65c.49-4.47,1.57-8.31,3.23-11.51s4.07-5.7,7.2-7.5c3.14-1.8,7.35-2.7,12.64-2.7s9,.82,11.91,2.45c2.91,1.63,5.08,3.71,6.52,6.22,1.44,2.52,2.33,5.23,2.69,8.13.36,2.91.54,5.63.54,8.18h-14.11c0-5.1-.6-8.8-1.81-11.12Z"/>
      <path d="M53.36,21.71c.49-4.47,1.57-8.31,3.23-11.51s4.07-5.7,7.2-7.5c3.14-1.8,7.35-2.7,12.64-2.7s9.51.9,12.64,2.7c3.14,1.8,5.54,4.3,7.2,7.5s2.74,7.04,3.23,11.51c.49,4.48.73,9.36.73,14.65s-.25,10.26-.73,14.7c-.49,4.44-1.57,8.27-3.23,11.47s-4.07,5.65-7.2,7.35c-3.14,1.7-7.35,2.55-12.64,2.55s-9.51-.85-12.64-2.55c-3.14-1.7-5.54-4.15-7.2-7.35s-2.74-7.02-3.23-11.47c-.49-4.44-.73-9.34-.73-14.7s.24-10.18.73-14.65ZM67.08,48.36c.23,3.3.69,5.98,1.37,8.04.69,2.06,1.67,3.56,2.94,4.51,1.27.95,2.96,1.42,5.05,1.42s3.77-.47,5.05-1.42c1.27-.95,2.25-2.45,2.94-4.51.69-2.06,1.14-4.74,1.37-8.04.23-3.3.34-7.3.34-12s-.11-8.69-.34-11.96c-.23-3.27-.69-5.94-1.37-8.04-.69-2.09-1.67-3.61-2.94-4.56s-2.96-1.42-5.05-1.42-3.77.47-5.05,1.42c-1.27.95-2.25,2.47-2.94,4.56-.69,2.09-1.14,4.77-1.37,8.04-.23,3.27-.34,7.25-.34,11.96s.11,8.71.34,12Z"/>
      <path d="M141.9,49.29h.2V1.37h12.94v69.97h-16.07l-17.25-49h-.2v49h-12.94V1.37h16.27l17.05,47.92Z"/>
      <path d="M205.8,12.94h-15.29v58.41h-14.11V12.94h-15.29V1.37h44.69v11.56Z"/>
      <path d="M237.55,1.37l18.52,69.97h-14.7l-3.23-14.8h-18.62l-3.23,14.8h-14.7L220.11,1.37h17.44ZM235.69,44.98l-6.76-31.46h-.2l-6.76,31.46h13.72Z"/>
      <path d="M289.05,13.87c-1.21-2.32-3.41-3.48-6.62-3.48-1.76,0-3.22.47-4.36,1.42-1.14.95-2.04,2.48-2.7,4.61-.65,2.12-1.11,4.9-1.37,8.33-.26,3.43-.39,7.63-.39,12.59,0,5.29.18,9.57.54,12.84.36,3.27.91,5.8,1.67,7.59.75,1.8,1.7,3.01,2.84,3.63,1.14.62,2.46.93,3.97.93,1.24,0,2.4-.21,3.48-.64s2.01-1.27,2.79-2.55c.78-1.27,1.4-3.07,1.86-5.39.46-2.32.69-5.37.69-9.16h14.11c0,3.79-.29,7.38-.88,10.78-.59,3.4-1.68,6.37-3.28,8.92-1.6,2.55-3.86,4.54-6.76,5.98-2.91,1.44-6.68,2.16-11.32,2.16-5.29,0-9.51-.85-12.64-2.55-3.14-1.7-5.54-4.15-7.2-7.35s-2.74-7.02-3.23-11.47c-.49-4.44-.74-9.34-.74-14.7s.25-10.18.74-14.65c.49-4.47,1.57-8.31,3.23-11.51s4.07-5.7,7.2-7.5c3.14-1.8,7.35-2.7,12.64-2.7s9,.82,11.91,2.45c2.91,1.63,5.08,3.71,6.52,6.22,1.44,2.52,2.33,5.23,2.69,8.13.36,2.91.54,5.63.54,8.18h-14.11c0-5.1-.61-8.8-1.81-11.12Z"/>
      <path d="M354.56,12.94h-15.29v58.41h-14.11V12.94h-15.29V1.37h44.69v11.56Z"/>
    </g>
  </g>
</svg>