<?xml version="1.0" encoding="UTF-8"?>
<svg id="Layer_2" data-name="Layer 2" xmlns="http://www.w3.org/2000/svg" viewBox="0 0 570.94 72.42">
  <g id="Layer_1-2" data-name="Layer 1">
    <g>
      <path d="M39.59,51.74c0,7.45-1.73,12.76-5.19,15.92-3.46,3.17-8.76,4.75-15.88,4.75-3.72,0-6.78-.51-9.16-1.52-2.39-1.01-4.28-2.45-5.68-4.31-1.41-1.86-2.37-4.03-2.89-6.52-.52-2.48-.78-5.1-.78-7.84v-3.04h12.94v2.16c0,3.72.41,6.49,1.23,8.28.82,1.8,2.5,2.7,5.05,2.7s4.23-.9,5.05-2.7c.82-1.8,1.23-4.56,1.23-8.28V1.37h14.11v50.37Z"/>
      <path d="M48.07,21.71c.49-4.47,1.57-8.31,3.23-11.51s4.07-5.7,7.2-7.5c3.14-1.8,7.35-2.7,12.64-2.7s9.51.9,12.64,2.7c3.14,1.8,5.54,4.3,7.2,7.5s2.74,7.04,3.23,11.51c.49,4.48.73,9.36.73,14.65s-.25,10.26-.73,14.7c-.49,4.44-1.57,8.27-3.23,11.47s-4.07,5.65-7.2,7.35c-3.14,1.7-7.35,2.55-12.64,2.55s-9.51-.85-12.64-2.55c-3.14-1.7-5.54-4.15-7.2-7.35s-2.74-7.02-3.23-11.47c-.49-4.44-.73-9.34-.73-14.7s.24-10.18.73-14.65ZM61.79,48.36c.23,3.3.69,5.98,1.37,8.04.69,2.06,1.67,3.56,2.94,4.51,1.27.95,2.96,1.42,5.05,1.42s3.77-.47,5.05-1.42c1.27-.95,2.25-2.45,2.94-4.51.69-2.06,1.14-4.74,1.37-8.04.23-3.3.34-7.3.34-12s-.11-8.69-.34-11.96c-.23-3.27-.69-5.94-1.37-8.04-.69-2.09-1.67-3.61-2.94-4.56-1.27-.95-2.96-1.42-5.05-1.42s-3.77.47-5.05,1.42c-1.27.95-2.25,2.47-2.94,4.56-.69,2.09-1.14,4.77-1.37,8.04-.23,3.27-.34,7.25-.34,11.96s.11,8.71.34,12Z"/>
      <path d="M102.56,21.71c.49-4.47,1.57-8.31,3.23-11.51s4.07-5.7,7.2-7.5c3.14-1.8,7.35-2.7,12.64-2.7s9.51.9,12.64,2.7c3.14,1.8,5.54,4.3,7.2,7.5s2.74,7.04,3.23,11.51c.49,4.48.73,9.36.73,14.65s-.25,10.26-.73,14.7c-.49,4.44-1.57,8.27-3.23,11.47s-4.07,5.65-7.2,7.35c-3.14,1.7-7.35,2.55-12.64,2.55s-9.51-.85-12.64-2.55c-3.14-1.7-5.54-4.15-7.2-7.35s-2.74-7.02-3.23-11.47c-.49-4.44-.73-9.34-.73-14.7s.24-10.18.73-14.65ZM116.28,48.36c.23,3.3.69,5.98,1.37,8.04.69,2.06,1.67,3.56,2.94,4.51,1.27.95,2.96,1.42,5.05,1.42s3.77-.47,5.05-1.42c1.27-.95,2.25-2.45,2.94-4.51.69-2.06,1.14-4.74,1.37-8.04.23-3.3.34-7.3.34-12s-.11-8.69-.34-11.96c-.23-3.27-.69-5.94-1.37-8.04-.69-2.09-1.67-3.61-2.94-4.56-1.27-.95-2.96-1.42-5.05-1.42s-3.77.47-5.05,1.42c-1.27.95-2.25,2.47-2.94,4.56-.69,2.09-1.14,4.77-1.37,8.04-.23,3.27-.34,7.25-.34,11.96s.11,8.71.34,12Z"/>
      <path d="M171.89,1.37v26.75h16.46V1.37h14.11v69.97h-14.11v-31.07h-16.46v31.07h-14.11V1.37h14.11Z"/>
      <path d="M232.75,28.42h.2l9.8-27.05h15.29l-18.13,42.43v27.54h-14.11v-27.54L207.66,1.37h15.88l9.21,27.05Z"/>
      <path d="M276.46,50.18c0,1.76.11,3.38.34,4.85.23,1.47.65,2.74,1.27,3.82.62,1.08,1.47,1.93,2.55,2.55s2.43.93,4.07.93,3.07-.31,4.12-.93c1.04-.62,1.88-1.47,2.5-2.55.62-1.08,1.04-2.35,1.27-3.82.23-1.47.34-3.09.34-4.85V1.37h14.11v48.8c0,4.44-.62,8.12-1.86,11.03-1.24,2.91-2.91,5.21-5,6.91-2.09,1.7-4.48,2.84-7.15,3.43-2.68.59-5.46.88-8.33.88s-5.65-.26-8.33-.78c-2.68-.52-5.06-1.58-7.15-3.18-2.09-1.6-3.76-3.87-5-6.81-1.24-2.94-1.86-6.76-1.86-11.47V1.37h14.11v48.8Z"/>
      <path d="M330.06,29.4h.2l17.84-28.03h15.29l-19.01,29.99,21.17,39.98h-15.88l-14.41-28.71-5.19,7.94v20.78h-14.11V1.37h14.11v28.03Z"/>
      <path d="M420.17,13.87c-1.21-2.32-3.41-3.48-6.62-3.48-1.76,0-3.22.47-4.36,1.42-1.14.95-2.04,2.48-2.69,4.61-.65,2.12-1.11,4.9-1.37,8.33-.26,3.43-.39,7.63-.39,12.59,0,5.29.18,9.57.54,12.84.36,3.27.91,5.8,1.67,7.59.75,1.8,1.7,3.01,2.84,3.63,1.14.62,2.47.93,3.97.93,1.24,0,2.4-.21,3.48-.64s2.01-1.27,2.79-2.55c.78-1.27,1.4-3.07,1.86-5.39.46-2.32.69-5.37.69-9.16h14.11c0,3.79-.29,7.38-.88,10.78-.59,3.4-1.68,6.37-3.28,8.92-1.6,2.55-3.86,4.54-6.76,5.98-2.91,1.44-6.68,2.16-11.32,2.16-5.29,0-9.51-.85-12.64-2.55-3.14-1.7-5.54-4.15-7.2-7.35s-2.74-7.02-3.23-11.47c-.49-4.44-.73-9.34-.73-14.7s.24-10.18.73-14.65c.49-4.47,1.57-8.31,3.23-11.51s4.07-5.7,7.2-7.5c3.14-1.8,7.35-2.7,12.64-2.7s9,.82,11.91,2.45c2.91,1.63,5.08,3.71,6.52,6.22,1.44,2.52,2.33,5.23,2.69,8.13.36,2.91.54,5.64.54,8.18h-14.11c0-5.1-.6-8.8-1.81-11.12Z"/>
      <path d="M458.83,1.37v26.75h16.46V1.37h14.11v69.97h-14.11v-31.07h-16.46v31.07h-14.11V1.37h14.11Z"/>
      <path d="M499.89,1.37h14.11v69.97h-14.11V1.37Z"/>
      <path d="M557.81,49.29h.2V1.37h12.94v69.97h-16.07l-17.25-49h-.2v49h-12.94V1.37h16.27l17.05,47.92Z"/>
    </g>
  </g>
</svg>