<?xml version="1.0" encoding="UTF-8"?>
<svg id="Layer_2" data-name="Layer 2" xmlns="http://www.w3.org/2000/svg" viewBox="0 0 321.39 67.38">
  <g id="Layer_1-2" data-name="Layer 1">
    <g>
      <path d="M39.9,1.53l24.71,64.41h-15.09l-5-14.34h-24.72l-5.18,14.34H0L24.99,1.53h14.9ZM40.73,41.04l-8.33-23.63h-.19l-8.61,23.63h17.12Z"/>
      <path d="M100.53,1.53c3.15,0,6.02.27,8.61.81,2.59.54,4.81,1.43,6.66,2.66,1.85,1.23,3.29,2.87,4.3,4.92,1.02,2.04,1.53,4.57,1.53,7.58,0,3.25-.76,5.95-2.27,8.12-1.51,2.16-3.75,3.94-6.71,5.32,4.07,1.14,7.11,3.14,9.12,6,2,2.86,3.01,6.3,3.01,10.33,0,3.25-.65,6.06-1.94,8.43-1.3,2.38-3.04,4.32-5.23,5.82-2.19,1.5-4.69,2.62-7.5,3.34-2.81.72-5.69,1.08-8.66,1.08h-32.03V1.53h31.1ZM98.67,27.6c2.59,0,4.72-.6,6.39-1.8,1.67-1.2,2.5-3.16,2.5-5.86,0-1.5-.28-2.74-.83-3.7-.56-.96-1.3-1.71-2.22-2.25-.93-.54-1.99-.92-3.19-1.13-1.2-.21-2.45-.32-3.75-.32h-13.61v15.06h14.72ZM99.51,54.94c1.42,0,2.78-.14,4.07-.41s2.44-.72,3.42-1.35c.99-.63,1.77-1.49,2.36-2.57.59-1.08.88-2.46.88-4.15,0-3.31-.96-5.67-2.87-7.08-1.91-1.41-4.44-2.12-7.59-2.12h-15.83v17.68h15.55Z"/>
      <path d="M133.02,20.61c1.48-4.12,3.61-7.71,6.39-10.78s6.19-5.47,10.23-7.22c4.04-1.74,8.59-2.62,13.65-2.62s9.69.87,13.7,2.62c4.01,1.74,7.41,4.15,10.18,7.22,2.78,3.07,4.91,6.66,6.39,10.78,1.48,4.12,2.22,8.58,2.22,13.4s-.74,9.07-2.22,13.12-3.61,7.59-6.39,10.6c-2.78,3.01-6.17,5.37-10.18,7.08-4.01,1.71-8.58,2.57-13.7,2.57s-9.61-.86-13.65-2.57c-4.04-1.71-7.45-4.07-10.23-7.08-2.78-3.01-4.91-6.54-6.39-10.6-1.48-4.06-2.22-8.43-2.22-13.12s.74-9.28,2.22-13.4ZM146.3,41.9c.65,2.56,1.68,4.86,3.1,6.9,1.42,2.04,3.27,3.68,5.55,4.92,2.28,1.23,5.06,1.85,8.33,1.85s6.05-.62,8.33-1.85c2.28-1.23,4.13-2.87,5.55-4.92,1.42-2.04,2.45-4.34,3.1-6.9.65-2.55.97-5.19.97-7.89s-.32-5.56-.97-8.21c-.65-2.65-1.68-5.01-3.1-7.08-1.42-2.07-3.27-3.73-5.55-4.96-2.28-1.23-5.06-1.85-8.33-1.85s-6.05.62-8.33,1.85c-2.28,1.23-4.14,2.89-5.55,4.96-1.42,2.07-2.45,4.44-3.1,7.08-.65,2.65-.97,5.38-.97,8.21s.32,5.34.97,7.89Z"/>
      <path d="M253.35,61.02c-5,4.24-11.91,6.36-20.73,6.36s-15.88-2.1-20.78-6.31c-4.91-4.21-7.36-10.7-7.36-19.48V1.53h14.53v40.05c0,1.75.15,3.46.46,5.14.31,1.68.96,3.17,1.94,4.47.99,1.29,2.36,2.34,4.12,3.16,1.76.81,4.12,1.22,7.08,1.22,5.18,0,8.76-1.13,10.74-3.38,1.97-2.26,2.96-5.79,2.96-10.6V1.53h14.53v40.05c0,8.72-2.5,15.2-7.5,19.44Z"/>
      <path d="M267.24,13.44V1.53h54.15v11.91h-19.81v52.5h-14.53V13.44h-19.81Z"/>
    </g>
  </g>
</svg>