<?xml version="1.0" encoding="UTF-8"?>
<svg id="Layer_2" data-name="Layer 2" xmlns="http://www.w3.org/2000/svg" viewBox="0 0 262.05 72.42">
  <g id="Layer_1-2" data-name="Layer 1">
    <g>
      <path d="M35.97,1.37l18.52,69.97h-14.7l-3.23-14.8h-18.62l-3.23,14.8H0L18.52,1.37h17.44ZM34.1,44.98l-6.76-31.46h-.2l-6.76,31.46h13.72Z"/>
      <path d="M83.01,1.37c2.87,0,5.54.29,7.99.88,2.45.59,4.56,1.57,6.32,2.94,1.76,1.37,3.14,3.2,4.12,5.49.98,2.29,1.47,5.1,1.47,8.43,0,3.79-.88,7.04-2.65,9.75-1.76,2.71-4.41,4.56-7.94,5.54v.2c3.92.52,7.02,2.19,9.31,5,2.29,2.81,3.43,6.57,3.43,11.27,0,2.74-.36,5.36-1.08,7.84-.72,2.48-1.94,4.66-3.68,6.52-1.73,1.86-3.99,3.35-6.76,4.46-2.78,1.11-6.22,1.67-10.34,1.67h-23.81V1.37h23.62ZM77.52,30.09c3.92,0,6.78-.7,8.58-2.11,1.8-1.4,2.69-3.77,2.69-7.1s-.82-5.68-2.45-7.06c-1.63-1.37-4.21-2.06-7.74-2.06h-5.1v18.33h4.02ZM78.99,60.96c3.4,0,6.14-.75,8.23-2.25,2.09-1.5,3.14-4.28,3.14-8.33,0-2.02-.28-3.71-.83-5.05-.56-1.34-1.31-2.42-2.25-3.23-.95-.82-2.07-1.39-3.38-1.71-1.31-.33-2.74-.49-4.31-.49h-6.08v21.07h5.49Z"/>
      <path d="M113.14,21.71c.49-4.47,1.57-8.31,3.23-11.51s4.07-5.7,7.2-7.5c3.14-1.8,7.35-2.7,12.64-2.7s9.51.9,12.64,2.7c3.14,1.8,5.54,4.3,7.2,7.5s2.74,7.04,3.23,11.51c.49,4.48.73,9.36.73,14.65s-.25,10.26-.73,14.7c-.49,4.44-1.57,8.27-3.23,11.47s-4.07,5.65-7.2,7.35c-3.14,1.7-7.35,2.55-12.64,2.55s-9.51-.85-12.64-2.55c-3.14-1.7-5.54-4.15-7.2-7.35s-2.74-7.02-3.23-11.47c-.49-4.44-.73-9.34-.73-14.7s.24-10.18.73-14.65ZM126.86,48.36c.23,3.3.69,5.98,1.37,8.04.69,2.06,1.67,3.56,2.94,4.51,1.27.95,2.96,1.42,5.05,1.42s3.77-.47,5.05-1.42c1.27-.95,2.25-2.45,2.94-4.51.69-2.06,1.14-4.74,1.37-8.04.23-3.3.34-7.3.34-12s-.11-8.69-.34-11.96c-.23-3.27-.69-5.94-1.37-8.04-.69-2.09-1.67-3.61-2.94-4.56-1.27-.95-2.96-1.42-5.05-1.42s-3.77.47-5.05,1.42c-1.27.95-2.25,2.47-2.94,4.56-.69,2.09-1.14,4.77-1.37,8.04-.23,3.27-.34,7.25-.34,11.96s.11,8.71.34,12Z"/>
      <path d="M181.59,50.18c0,1.76.11,3.38.34,4.85.23,1.47.65,2.74,1.27,3.82.62,1.08,1.47,1.93,2.55,2.55s2.43.93,4.07.93,3.07-.31,4.12-.93c1.04-.62,1.88-1.47,2.5-2.55.62-1.08,1.04-2.35,1.27-3.82.23-1.47.34-3.09.34-4.85V1.37h14.11v48.8c0,4.44-.62,8.12-1.86,11.03-1.24,2.91-2.91,5.21-5,6.91-2.09,1.7-4.48,2.84-7.15,3.43-2.68.59-5.46.88-8.33.88s-5.65-.26-8.33-.78c-2.68-.52-5.06-1.58-7.15-3.18-2.09-1.6-3.76-3.87-5-6.81-1.24-2.94-1.86-6.76-1.86-11.47V1.37h14.11v48.8Z"/>
      <path d="M262.05,12.94h-15.29v58.41h-14.11V12.94h-15.29V1.37h44.69v11.56Z"/>
    </g>
  </g>
</svg>