<?xml version="1.0" encoding="UTF-8"?>
<svg id="Layer_2" data-name="Layer 2" xmlns="http://www.w3.org/2000/svg" viewBox="0 0 315.28 67.47">
  <g id="Layer_1-2" data-name="Layer 1">
    <g>
      <path d="M25.36,1.53h12.31l25.46,64.41h-12.4l-6.2-17.05h-26.38l-6.2,17.05H0L25.36,1.53ZM21.29,40.32h20.18l-9.9-27.69h-.28l-10,27.69Z"/>
      <path d="M68.5,1.53h32.12c5.92,0,10.68,1.32,14.25,3.97,3.58,2.65,5.37,6.65,5.37,12,0,3.25-.82,6.03-2.45,8.34-1.64,2.32-3.97,4.1-6.99,5.37v.18c4.07.84,7.16,2.72,9.26,5.64,2.1,2.92,3.15,6.57,3.15,10.96,0,2.53-.46,4.89-1.39,7.08-.93,2.2-2.38,4.09-4.35,5.68-1.98,1.59-4.51,2.86-7.59,3.79-3.09.93-6.76,1.4-11.02,1.4h-30.36V1.53ZM80.07,28.5h18.88c2.78,0,5.09-.77,6.94-2.3,1.85-1.53,2.78-3.74,2.78-6.63,0-3.25-.83-5.53-2.5-6.86-1.67-1.32-4.07-1.99-7.22-1.99h-18.88v17.77ZM80.07,56.74h20.46c3.52,0,6.25-.89,8.19-2.66,1.94-1.77,2.92-4.28,2.92-7.53s-.97-5.64-2.92-7.35-4.67-2.57-8.19-2.57h-20.46v20.12Z"/>
      <path d="M160.88,0c4.94,0,9.36.9,13.28,2.71,3.92,1.8,7.23,4.24,9.95,7.31,2.71,3.07,4.8,6.65,6.25,10.73,1.45,4.09,2.18,8.42,2.18,12.99s-.73,8.99-2.18,13.08c-1.45,4.09-3.53,7.67-6.25,10.74-2.72,3.07-6.03,5.49-9.95,7.26-3.92,1.77-8.35,2.66-13.28,2.66s-9.36-.89-13.28-2.66c-3.92-1.77-7.24-4.19-9.95-7.26-2.72-3.07-4.8-6.64-6.25-10.74-1.45-4.09-2.18-8.45-2.18-13.08s.72-8.9,2.18-12.99c1.45-4.09,3.53-7.67,6.25-10.73,2.71-3.07,6.03-5.5,9.95-7.31,3.92-1.8,8.35-2.71,13.28-2.71ZM160.88,9.2c-3.52,0-6.56.69-9.12,2.08-2.56,1.38-4.64,3.23-6.25,5.55-1.61,2.32-2.79,4.95-3.56,7.89-.77,2.95-1.16,5.95-1.16,9.02s.38,6.07,1.16,9.02c.77,2.95,1.96,5.58,3.56,7.89,1.6,2.32,3.69,4.17,6.25,5.55,2.56,1.38,5.6,2.08,9.12,2.08s6.56-.69,9.12-2.08c2.56-1.38,4.64-3.23,6.25-5.55,1.6-2.31,2.79-4.95,3.56-7.89.77-2.95,1.16-5.95,1.16-9.02s-.39-6.07-1.16-9.02c-.77-2.95-1.96-5.58-3.56-7.89-1.61-2.31-3.69-4.16-6.25-5.55-2.56-1.38-5.6-2.08-9.12-2.08Z"/>
      <path d="M201.42,1.53h11.57v37.53c0,2.16.11,4.36.32,6.58.22,2.22.83,4.23,1.85,6,1.02,1.77,2.56,3.23,4.63,4.38,2.07,1.14,4.98,1.71,8.75,1.71s6.68-.57,8.75-1.71c2.07-1.14,3.61-2.6,4.63-4.38,1.02-1.77,1.63-3.77,1.85-6,.22-2.22.32-4.42.32-6.58V1.53h11.57v41.22c0,4.15-.65,7.76-1.94,10.82-1.3,3.07-3.13,5.64-5.51,7.71-2.38,2.07-5.23,3.62-8.56,4.65-3.33,1.02-7.03,1.53-11.11,1.53s-7.78-.51-11.11-1.53c-3.33-1.02-6.19-2.57-8.56-4.65-2.38-2.08-4.21-4.65-5.51-7.71-1.3-3.07-1.94-6.67-1.94-10.82V1.53Z"/>
      <path d="M261.77,1.53h53.5v9.74h-21.01v54.66h-11.57V11.28h-20.92V1.53Z"/>
    </g>
  </g>
</svg>