<?xml version="1.0" encoding="UTF-8"?>
<svg id="Layer_2" data-name="Layer 2" xmlns="http://www.w3.org/2000/svg" viewBox="0 0 435.52 67.38">
  <g id="Layer_1-2" data-name="Layer 1">
    <g>
      <path d="M45.26,18.72c-.87-1.35-1.94-2.54-3.24-3.56-1.3-1.02-2.76-1.82-4.4-2.39-1.64-.57-3.35-.86-5.14-.86-3.27,0-6.05.62-8.33,1.85-2.28,1.23-4.14,2.89-5.55,4.96-1.42,2.07-2.45,4.44-3.1,7.08-.65,2.65-.97,5.38-.97,8.21s.32,5.34.97,7.89c.65,2.56,1.68,4.86,3.1,6.9,1.42,2.04,3.27,3.68,5.55,4.92,2.28,1.23,5.06,1.85,8.33,1.85,4.44,0,7.91-1.32,10.41-3.97,2.5-2.65,4.03-6.13,4.58-10.46h14.07c-.37,4.03-1.33,7.67-2.87,10.91-1.54,3.25-3.58,6.01-6.11,8.3-2.53,2.29-5.49,4.03-8.89,5.23-3.39,1.2-7.13,1.8-11.2,1.8-5.06,0-9.61-.86-13.65-2.57-4.04-1.71-7.45-4.07-10.23-7.08-2.78-3.01-4.91-6.54-6.39-10.6-1.48-4.06-2.22-8.43-2.22-13.12s.74-9.28,2.22-13.4c1.48-4.12,3.61-7.71,6.39-10.78s6.19-5.47,10.23-7.22c4.04-1.74,8.59-2.62,13.65-2.62,3.64,0,7.08.51,10.32,1.53,3.24,1.02,6.14,2.51,8.7,4.46,2.56,1.96,4.67,4.38,6.34,7.26,1.67,2.89,2.71,6.19,3.15,9.92h-14.07c-.25-1.62-.8-3.11-1.67-4.46Z"/>
      <path d="M69.89,20.61c1.48-4.12,3.61-7.71,6.39-10.78,2.78-3.07,6.19-5.47,10.23-7.22,4.04-1.74,8.59-2.62,13.65-2.62s9.69.87,13.7,2.62c4.01,1.74,7.41,4.15,10.18,7.22,2.78,3.07,4.91,6.66,6.39,10.78,1.48,4.12,2.22,8.58,2.22,13.4s-.74,9.07-2.22,13.12c-1.48,4.06-3.61,7.59-6.39,10.6-2.78,3.01-6.17,5.37-10.18,7.08-4.01,1.71-8.58,2.57-13.7,2.57s-9.61-.86-13.65-2.57c-4.04-1.71-7.45-4.07-10.23-7.08-2.78-3.01-4.91-6.54-6.39-10.6-1.48-4.06-2.22-8.43-2.22-13.12s.74-9.28,2.22-13.4ZM83.17,41.9c.65,2.56,1.68,4.86,3.1,6.9,1.42,2.04,3.27,3.68,5.55,4.92,2.28,1.23,5.06,1.85,8.33,1.85s6.05-.62,8.33-1.85c2.28-1.23,4.13-2.87,5.55-4.92,1.42-2.04,2.45-4.34,3.1-6.9.65-2.56.97-5.19.97-7.89s-.32-5.56-.97-8.21c-.65-2.65-1.68-5.01-3.1-7.08-1.42-2.07-3.27-3.73-5.55-4.96-2.28-1.23-5.06-1.85-8.33-1.85s-6.05.62-8.33,1.85c-2.28,1.23-4.14,2.89-5.55,4.96-1.42,2.07-2.45,4.44-3.1,7.08-.65,2.65-.97,5.38-.97,8.21s.32,5.34.97,7.89Z"/>
      <path d="M156.06,1.53l27.58,43.21h.19V1.53h13.61v64.41h-14.53l-27.49-43.12h-.18v43.12h-13.61V1.53h14.44Z"/>
      <path d="M204.11,13.44V1.53h54.15v11.91h-19.81v52.5h-14.53V13.44h-19.81Z"/>
      <path d="M289.36,1.53l24.71,64.41h-15.09l-5-14.34h-24.72l-5.18,14.34h-14.62L274.46,1.53h14.9ZM290.19,41.04l-8.33-23.63h-.19l-8.61,23.63h17.12Z"/>
      <path d="M361.28,18.72c-.87-1.35-1.94-2.54-3.24-3.56-1.3-1.02-2.76-1.82-4.4-2.39-1.64-.57-3.35-.86-5.14-.86-3.27,0-6.05.62-8.33,1.85-2.28,1.23-4.13,2.89-5.55,4.96-1.42,2.07-2.45,4.44-3.1,7.08-.65,2.65-.97,5.38-.97,8.21s.32,5.34.97,7.89c.65,2.56,1.68,4.86,3.1,6.9,1.42,2.04,3.27,3.68,5.55,4.92,2.28,1.23,5.06,1.85,8.33,1.85,4.44,0,7.91-1.32,10.41-3.97,2.5-2.65,4.03-6.13,4.58-10.46h14.07c-.37,4.03-1.33,7.67-2.87,10.91-1.54,3.25-3.58,6.01-6.11,8.3-2.53,2.29-5.49,4.03-8.89,5.23-3.39,1.2-7.13,1.8-11.2,1.8-5.06,0-9.61-.86-13.65-2.57-4.04-1.71-7.45-4.07-10.23-7.08-2.78-3.01-4.91-6.54-6.39-10.6-1.48-4.06-2.22-8.43-2.22-13.12s.74-9.28,2.22-13.4c1.48-4.12,3.61-7.71,6.39-10.78,2.78-3.07,6.19-5.47,10.23-7.22,4.04-1.74,8.59-2.62,13.65-2.62,3.64,0,7.08.51,10.32,1.53,3.24,1.02,6.14,2.51,8.7,4.46,2.56,1.96,4.67,4.38,6.34,7.26,1.67,2.89,2.71,6.19,3.15,9.92h-14.07c-.25-1.62-.8-3.11-1.67-4.46Z"/>
      <path d="M381.37,13.44V1.53h54.15v11.91h-19.81v52.5h-14.53V13.44h-19.81Z"/>
    </g>
  </g>
</svg>