<?xml version="1.0" encoding="UTF-8"?>
<svg id="Layer_2" data-name="Layer 2" xmlns="http://www.w3.org/2000/svg" viewBox="0 0 424.13 67.47">
  <g id="Layer_1-2" data-name="Layer 1">
    <g>
      <path d="M48.13,22.01c-.5-1.86-1.17-3.58-2.04-5.14-.86-1.56-1.98-2.92-3.33-4.06-1.36-1.14-2.95-2.03-4.77-2.66-1.82-.63-3.93-.95-6.34-.95-3.52,0-6.56.69-9.12,2.07-2.56,1.38-4.64,3.23-6.25,5.55-1.61,2.32-2.79,4.95-3.56,7.89-.77,2.95-1.16,5.95-1.16,9.02s.38,6.08,1.16,9.02c.77,2.95,1.96,5.58,3.56,7.89,1.6,2.32,3.69,4.17,6.25,5.55,2.56,1.38,5.6,2.08,9.12,2.08,2.59,0,4.87-.44,6.85-1.31,1.97-.87,3.67-2.07,5.09-3.61,1.42-1.53,2.53-3.32,3.33-5.37.8-2.04,1.33-4.24,1.57-6.58h11.29c-.25,3.85-1.1,7.37-2.55,10.55-1.45,3.19-3.41,5.94-5.88,8.25-2.47,2.32-5.37,4.1-8.7,5.37-3.33,1.26-7,1.89-11.02,1.89-4.94,0-9.36-.89-13.28-2.66-3.92-1.77-7.24-4.19-9.95-7.26-2.72-3.07-4.8-6.64-6.25-10.73-1.45-4.09-2.18-8.45-2.18-13.08s.72-8.9,2.18-12.99c1.45-4.09,3.53-7.67,6.25-10.73,2.71-3.07,6.03-5.5,9.95-7.31,3.92-1.8,8.35-2.71,13.28-2.71,3.7,0,7.19.5,10.46,1.49,3.27.99,6.16,2.44,8.65,4.33,2.5,1.89,4.52,4.19,6.06,6.9,1.54,2.71,2.5,5.8,2.87,9.29h-11.57Z"/>
      <path d="M97.56,0c4.94,0,9.36.9,13.28,2.71,3.92,1.8,7.23,4.24,9.95,7.31,2.71,3.07,4.8,6.65,6.25,10.73,1.45,4.09,2.18,8.42,2.18,12.99s-.73,8.99-2.18,13.08c-1.45,4.09-3.53,7.67-6.25,10.73-2.72,3.07-6.03,5.49-9.95,7.26-3.92,1.77-8.35,2.66-13.28,2.66s-9.36-.89-13.28-2.66c-3.92-1.77-7.24-4.19-9.95-7.26-2.72-3.07-4.8-6.64-6.25-10.73-1.45-4.09-2.18-8.45-2.18-13.08s.72-8.9,2.18-12.99c1.45-4.09,3.53-7.67,6.25-10.73,2.71-3.07,6.03-5.5,9.95-7.31,3.92-1.8,8.35-2.71,13.28-2.71ZM97.56,9.2c-3.52,0-6.56.69-9.12,2.07-2.56,1.38-4.64,3.23-6.25,5.55-1.61,2.32-2.79,4.95-3.56,7.89-.77,2.95-1.16,5.95-1.16,9.02s.38,6.08,1.16,9.02c.77,2.95,1.96,5.58,3.56,7.89,1.6,2.32,3.69,4.17,6.25,5.55,2.56,1.38,5.6,2.08,9.12,2.08s6.56-.69,9.12-2.08c2.56-1.38,4.64-3.23,6.25-5.55,1.6-2.31,2.79-4.95,3.56-7.89.77-2.95,1.16-5.95,1.16-9.02s-.39-6.07-1.16-9.02c-.77-2.95-1.96-5.58-3.56-7.89-1.61-2.31-3.69-4.16-6.25-5.55-2.56-1.38-5.6-2.07-9.12-2.07Z"/>
      <path d="M138.38,1.53h12.22l30.18,47.45h.19V1.53h11.02v64.41h-12.22l-30.08-47.36h-.28v47.36h-11.02V1.53Z"/>
      <path d="M198.46,1.53h53.5v9.74h-21.01v54.66h-11.57V11.28h-20.92V1.53Z"/>
      <path d="M267.88,1.53h12.31l25.46,64.41h-12.4l-6.2-17.05h-26.38l-6.2,17.05h-11.94L267.88,1.53ZM263.81,40.32h20.18l-9.9-27.69h-.28l-10,27.69Z"/>
      <path d="M355.63,22.01c-.5-1.86-1.17-3.58-2.04-5.14-.87-1.56-1.98-2.92-3.33-4.06-1.36-1.14-2.95-2.03-4.77-2.66-1.82-.63-3.93-.95-6.34-.95-3.52,0-6.56.69-9.12,2.07-2.56,1.38-4.64,3.23-6.25,5.55-1.61,2.32-2.79,4.95-3.56,7.89-.77,2.95-1.16,5.95-1.16,9.02s.38,6.08,1.16,9.02c.77,2.95,1.96,5.58,3.56,7.89,1.6,2.32,3.69,4.17,6.25,5.55,2.56,1.38,5.6,2.08,9.12,2.08,2.59,0,4.87-.44,6.85-1.31,1.97-.87,3.67-2.07,5.09-3.61,1.42-1.53,2.53-3.32,3.33-5.37.8-2.04,1.33-4.24,1.57-6.58h11.29c-.25,3.85-1.1,7.37-2.54,10.55-1.45,3.19-3.41,5.94-5.88,8.25-2.47,2.32-5.37,4.1-8.7,5.37-3.33,1.26-7,1.89-11.02,1.89-4.94,0-9.36-.89-13.28-2.66-3.92-1.77-7.24-4.19-9.95-7.26-2.72-3.07-4.8-6.64-6.25-10.73-1.45-4.09-2.18-8.45-2.18-13.08s.72-8.9,2.18-12.99c1.45-4.09,3.53-7.67,6.25-10.73,2.71-3.07,6.03-5.5,9.95-7.31,3.92-1.8,8.35-2.71,13.28-2.71,3.7,0,7.19.5,10.46,1.49,3.27.99,6.16,2.44,8.65,4.33,2.5,1.89,4.52,4.19,6.06,6.9,1.54,2.71,2.5,5.8,2.87,9.29h-11.57Z"/>
      <path d="M370.63,1.53h53.5v9.74h-21.01v54.66h-11.57V11.28h-20.92V1.53Z"/>
    </g>
  </g>
</svg>