<?xml version="1.0" encoding="UTF-8"?>
<svg id="Layer_2" data-name="Layer 2" xmlns="http://www.w3.org/2000/svg" viewBox="0 0 270.78 268.42">
  <style>
    :root { color-scheme: light dark; }
    .fg { fill: black; }
    @media (prefers-color-scheme: dark) {
      .fg { fill: white; }
    }
  </style>
  <g id="Layer_1-2" data-name="Layer 1" class="fg">
    <path d="M13.91,31.37c6.9,1.58,16.97,2.37,30.19,2.37h72.8c2.76-10.85,5.03-22.09,6.81-33.74,7.69,2.96,14.7,5.72,21.01,8.29,4.54,1.38,6.81,2.86,6.81,4.44,0,1.78-1.68,2.86-5.03,3.26-6.71.99-10.06,1.88-10.06,2.66-1.58,5.33-3.16,10.36-4.73,15.09h87.01c2.37-2.96,4.63-6.02,6.81-9.17,2.37-3.15,4.34-4.73,5.92-4.73s5.03,2.47,10.36,7.4c6.11,5.53,9.17,8.78,9.17,9.77,0,3.16-1.88,4.73-5.62,4.73h-116.3c-2.96,8.88-6.02,16.97-9.17,24.27h82.57c2.56-2.96,4.93-6.02,7.1-9.17,2.37-3.15,4.24-4.73,5.62-4.73,1.58,0,5.03,2.47,10.36,7.4,6.11,5.53,9.17,8.88,9.17,10.06,0,2.96-1.88,4.44-5.62,4.44h-112.75c-4.54,9.67-9.17,18.05-13.91,25.15-.79,1.38-1.68,2.66-2.66,3.85h132.88c2.76-3.35,5.22-6.9,7.4-10.65,2.76-3.75,4.93-5.62,6.51-5.62,1.78,0,5.62,2.86,11.54,8.58,6.9,6.12,10.36,9.87,10.36,11.25,0,2.96-2.37,4.44-7.1,4.44h-83.75c10.26,11.25,21.9,20.12,34.92,26.63,10.65,5.53,30.08,11.74,58.3,18.64v4.44c-8.09,0-13.42,1.58-15.98,4.73-1.58,2.37-2.86,3.55-3.85,3.55-3.36,0-14.8-5.62-34.33-16.87-20.72-12.03-35.71-25.75-44.98-41.14h-77.24c-9.08,12.83-18.64,23.58-28.71,32.26-14.6,13.81-35.71,27.33-63.33,40.54l-2.37-3.26c26.44-15.58,48.04-32.35,64.81-50.31,5.92-5.92,11.34-12.33,16.28-19.24H31.37c-12.43,0-20.91.79-25.45,2.37l-4.73-12.73c6.9,1.58,16.97,2.37,30.19,2.37h55.04c5.72-8.48,10.75-17.65,15.09-27.52.19-.59.39-1.08.59-1.48h-44.09c-12.43,0-20.91.79-25.45,2.37l-4.74-12.73c6.71,1.58,16.77,2.37,30.19,2.37h47.65c3.55-7.89,6.51-15.98,8.88-24.27H44.09c-12.43,0-20.91.79-25.45,2.37l-4.74-12.73ZM166.61,139.98c-10.06,2.37-18.94,4.24-26.63,5.62v30.19h53.27c2.56-2.96,4.83-6.02,6.81-9.17,2.37-3.15,4.34-4.73,5.92-4.73s5.03,2.47,10.36,7.4c6.11,5.53,9.17,8.88,9.17,10.06,0,2.96-1.88,4.44-5.62,4.44h-79.9v10.95c51.29,12.63,83.65,23.68,97.07,33.15,7.1,5.33,10.95,11.05,11.54,17.16,0,2.37-1.09,3.55-3.25,3.55-2.37,0-10.36-4.44-23.97-13.32-17.96-11.64-45.08-24.27-81.38-37.88v61.56c0,3.55-.99,5.82-2.96,6.81-2.37,1.78-4.44,2.66-6.21,2.66-2.37,0-3.55-3.16-3.55-9.47l1.18-32.26v-39.36c-14.8,15.39-29.89,27.52-45.28,36.4-20.91,12.63-44,22.88-69.25,30.78l-1.18-3.55c22.69-7.5,43.3-17.26,61.85-29.3,15.19-9.27,29.59-21.9,43.21-37.88h-55.34c-12.24,0-20.72.79-25.45,2.37l-4.44-12.73c6.7,1.58,16.67,2.37,29.89,2.37h65.99v-28.11c-12.24,1.78-29.59,3.45-52.09,5.03l-2.37-4.73c13.61-1.58,29.49-4.44,47.65-8.58,13.41-3.15,27.23-7.99,41.43-14.5,5.13,3.16,9.86,6.41,14.21,9.77,2.17,1.58,3.25,3.36,3.25,5.33,0,.2-.79.59-2.37,1.18-3.95-.39-7.8-.79-11.54-1.18Z"/>
  </g>
</svg>