<?xml version="1.0" encoding="UTF-8"?>
<svg id="Layer_2" data-name="Layer 2" xmlns="http://www.w3.org/2000/svg" viewBox="0 0 681.37 67.47">
  <g id="Layer_1-2" data-name="Layer 1">
    <g>
      <path d="M41.47,45.19c0,2.83-.25,5.56-.74,8.21-.49,2.65-1.5,5.02-3.01,7.13-1.51,2.11-3.7,3.79-6.57,5.05-2.87,1.26-6.68,1.89-11.43,1.89-3.52,0-6.51-.53-8.98-1.58-2.47-1.05-4.51-2.5-6.11-4.33-1.61-1.83-2.78-4.01-3.52-6.54-.74-2.53-1.11-5.26-1.11-8.21v-3.43h11.57v3.34c0,3.67.63,6.51,1.9,8.52,1.26,2.02,3.66,3.02,7.17,3.02,1.85,0,3.38-.27,4.58-.81,1.2-.54,2.16-1.34,2.87-2.39.71-1.05,1.19-2.36,1.44-3.92.25-1.56.37-3.34.37-5.32V1.53h11.57v43.66Z"/>
      <path d="M82.75,0c4.94,0,9.36.9,13.28,2.71,3.92,1.8,7.23,4.24,9.95,7.31,2.71,3.07,4.8,6.65,6.25,10.73,1.45,4.09,2.18,8.42,2.18,12.99s-.73,8.99-2.18,13.08c-1.45,4.09-3.53,7.67-6.25,10.73-2.72,3.07-6.03,5.49-9.95,7.26-3.92,1.77-8.35,2.66-13.28,2.66s-9.36-.89-13.28-2.66c-3.92-1.77-7.24-4.19-9.95-7.26-2.72-3.07-4.8-6.64-6.25-10.73-1.45-4.09-2.18-8.45-2.18-13.08s.72-8.9,2.18-12.99c1.45-4.09,3.53-7.67,6.25-10.73,2.71-3.07,6.03-5.5,9.95-7.31,3.92-1.8,8.35-2.71,13.28-2.71ZM82.75,9.2c-3.52,0-6.56.69-9.12,2.07-2.56,1.38-4.64,3.23-6.25,5.55-1.61,2.32-2.79,4.95-3.56,7.89-.77,2.95-1.16,5.95-1.16,9.02s.38,6.07,1.16,9.02c.77,2.95,1.96,5.58,3.56,7.89,1.6,2.32,3.69,4.17,6.25,5.55,2.56,1.38,5.6,2.08,9.12,2.08s6.56-.69,9.12-2.08c2.56-1.38,4.64-3.23,6.25-5.55,1.6-2.31,2.79-4.95,3.56-7.89.77-2.95,1.16-5.95,1.16-9.02s-.39-6.07-1.16-9.02c-.77-2.95-1.96-5.58-3.56-7.89-1.61-2.31-3.69-4.16-6.25-5.55-2.56-1.38-5.6-2.07-9.12-2.07Z"/>
      <path d="M152.18,0c4.94,0,9.36.9,13.28,2.71,3.92,1.8,7.23,4.24,9.95,7.31,2.71,3.07,4.8,6.65,6.25,10.73,1.45,4.09,2.18,8.42,2.18,12.99s-.73,8.99-2.18,13.08c-1.45,4.09-3.53,7.67-6.25,10.73-2.72,3.07-6.03,5.49-9.95,7.26-3.92,1.77-8.35,2.66-13.28,2.66s-9.36-.89-13.28-2.66c-3.92-1.77-7.24-4.19-9.95-7.26-2.72-3.07-4.8-6.64-6.25-10.73-1.45-4.09-2.18-8.45-2.18-13.08s.72-8.9,2.18-12.99c1.45-4.09,3.53-7.67,6.25-10.73,2.71-3.07,6.03-5.5,9.95-7.31,3.92-1.8,8.35-2.71,13.28-2.71ZM152.18,9.2c-3.52,0-6.56.69-9.12,2.07-2.56,1.38-4.64,3.23-6.25,5.55-1.61,2.32-2.79,4.95-3.56,7.89-.77,2.95-1.16,5.95-1.16,9.02s.38,6.07,1.16,9.02c.77,2.95,1.96,5.58,3.56,7.89,1.6,2.32,3.69,4.17,6.25,5.55,2.56,1.38,5.6,2.08,9.12,2.08s6.56-.69,9.12-2.08c2.56-1.38,4.64-3.23,6.25-5.55,1.6-2.31,2.79-4.95,3.56-7.89.77-2.95,1.16-5.95,1.16-9.02s-.39-6.07-1.16-9.02c-.77-2.95-1.96-5.58-3.56-7.89-1.61-2.31-3.69-4.16-6.25-5.55-2.56-1.38-5.6-2.07-9.12-2.07Z"/>
      <path d="M193.18,1.53h11.57v25.62h30.08V1.53h11.57v64.41h-11.57v-29.05h-30.08v29.05h-11.57V1.53Z"/>
      <path d="M276.58,40.68L251.78,1.53h13.42l17.49,28.87,17.22-28.87h12.96l-24.72,39.15v25.26h-11.57v-25.26Z"/>
      <path d="M317.68,1.53h11.57v37.53c0,2.16.11,4.36.32,6.58.22,2.22.83,4.23,1.85,6,1.02,1.77,2.56,3.23,4.63,4.38,2.07,1.14,4.98,1.71,8.75,1.71s6.68-.57,8.75-1.71c2.07-1.14,3.61-2.6,4.63-4.38,1.02-1.77,1.63-3.77,1.85-6,.22-2.22.32-4.42.32-6.58V1.53h11.57v41.22c0,4.15-.65,7.76-1.94,10.82-1.3,3.07-3.13,5.64-5.51,7.71-2.38,2.07-5.23,3.62-8.56,4.65-3.33,1.02-7.03,1.53-11.11,1.53s-7.78-.51-11.11-1.53c-3.33-1.02-6.19-2.57-8.56-4.65-2.38-2.08-4.21-4.65-5.51-7.71-1.3-3.07-1.94-6.67-1.94-10.82V1.53Z"/>
      <path d="M384.33,1.53h11.57v29.32l29.44-29.32h14.25l-26.38,25.71,28.23,38.7h-14.44l-21.66-30.76-9.44,9.11v21.65h-11.57V1.53Z"/>
      <path d="M516.23,22.01c-.49-1.86-1.17-3.58-2.04-5.14-.87-1.56-1.98-2.92-3.33-4.06-1.36-1.14-2.95-2.03-4.77-2.66-1.82-.63-3.93-.95-6.34-.95-3.52,0-6.56.69-9.12,2.07-2.56,1.38-4.64,3.23-6.25,5.55-1.61,2.32-2.79,4.95-3.56,7.89-.77,2.95-1.16,5.95-1.16,9.02s.38,6.07,1.16,9.02c.77,2.95,1.96,5.58,3.56,7.89,1.6,2.32,3.69,4.17,6.25,5.55,2.56,1.38,5.6,2.08,9.12,2.08,2.59,0,4.87-.44,6.85-1.31,1.97-.87,3.67-2.07,5.09-3.61,1.42-1.53,2.53-3.32,3.33-5.37.8-2.04,1.33-4.24,1.57-6.58h11.29c-.25,3.85-1.1,7.37-2.54,10.55-1.45,3.19-3.41,5.94-5.88,8.25-2.47,2.32-5.37,4.1-8.7,5.37-3.33,1.26-7,1.89-11.02,1.89-4.94,0-9.37-.89-13.28-2.66-3.92-1.77-7.24-4.19-9.95-7.26-2.72-3.07-4.8-6.64-6.25-10.73-1.45-4.09-2.17-8.45-2.17-13.08s.72-8.9,2.17-12.99c1.45-4.09,3.53-7.67,6.25-10.73,2.71-3.07,6.03-5.5,9.95-7.31,3.92-1.8,8.35-2.71,13.28-2.71,3.7,0,7.19.5,10.46,1.49,3.27.99,6.16,2.44,8.66,4.33,2.5,1.89,4.52,4.19,6.06,6.9,1.54,2.71,2.5,5.8,2.87,9.29h-11.57Z"/>
      <path d="M537.24,1.53h11.57v25.62h30.08V1.53h11.57v64.41h-11.57v-29.05h-30.08v29.05h-11.57V1.53Z"/>
      <path d="M603.43,1.53h11.57v64.41h-11.57V1.53Z"/>
      <path d="M627.77,1.53h12.22l30.18,47.45h.19V1.53h11.02v64.41h-12.22l-30.08-47.36h-.28v47.36h-11.02V1.53Z"/>
    </g>
  </g>
</svg>