<?xml version="1.0" encoding="UTF-8"?>
<svg id="Layer_2" data-name="Layer 2" xmlns="http://www.w3.org/2000/svg" viewBox="0 0 702.2 67.38">
  <g id="Layer_1-2" data-name="Layer 1">
    <g>
      <path d="M43.14,52.59c-.43,2.53-1.42,4.89-2.96,7.08-1.54,2.2-3.76,4.03-6.66,5.5-2.9,1.47-6.82,2.21-11.76,2.21-2.78,0-5.46-.38-8.05-1.13-2.59-.75-4.91-1.92-6.94-3.52-2.04-1.59-3.67-3.64-4.91-6.13-1.24-2.5-1.85-5.52-1.85-9.07v-5.59h13.14v2.89c0,1.56.12,3.01.37,4.33.25,1.32.68,2.45,1.3,3.38.62.93,1.47,1.67,2.55,2.21,1.08.54,2.48.81,4.21.81,1.91,0,3.39-.33,4.44-.99,1.05-.66,1.81-1.52,2.27-2.57.46-1.05.74-2.19.83-3.43.09-1.23.14-2.42.14-3.56V1.53h14.53v44.11c0,2.11-.22,4.42-.65,6.95Z"/>
      <path d="M54.98,20.61c1.48-4.12,3.61-7.71,6.39-10.78s6.19-5.47,10.23-7.22c4.04-1.74,8.59-2.62,13.65-2.62s9.69.87,13.7,2.62c4.01,1.74,7.41,4.15,10.18,7.22,2.78,3.07,4.91,6.66,6.39,10.78,1.48,4.12,2.22,8.58,2.22,13.4s-.74,9.07-2.22,13.12-3.61,7.59-6.39,10.6c-2.78,3.01-6.17,5.37-10.18,7.08-4.01,1.71-8.58,2.57-13.7,2.57s-9.61-.86-13.65-2.57c-4.04-1.71-7.45-4.07-10.23-7.08-2.78-3.01-4.91-6.54-6.39-10.6-1.48-4.06-2.22-8.43-2.22-13.12s.74-9.28,2.22-13.4ZM68.27,41.9c.65,2.56,1.68,4.86,3.1,6.9,1.42,2.04,3.27,3.68,5.55,4.92,2.28,1.23,5.06,1.85,8.33,1.85s6.05-.62,8.33-1.85c2.28-1.23,4.13-2.87,5.55-4.92,1.42-2.04,2.45-4.34,3.1-6.9.65-2.56.97-5.19.97-7.89s-.32-5.56-.97-8.21c-.65-2.65-1.68-5.01-3.1-7.08-1.42-2.07-3.27-3.73-5.55-4.96-2.28-1.23-5.06-1.85-8.33-1.85s-6.05.62-8.33,1.85c-2.28,1.23-4.14,2.89-5.55,4.96-1.42,2.07-2.45,4.44-3.1,7.08-.65,2.65-.97,5.38-.97,8.21s.32,5.34.97,7.89Z"/>
      <path d="M126.07,20.61c1.48-4.12,3.61-7.71,6.39-10.78s6.19-5.47,10.23-7.22c4.04-1.74,8.59-2.62,13.65-2.62s9.69.87,13.7,2.62c4.01,1.74,7.41,4.15,10.18,7.22,2.78,3.07,4.91,6.66,6.39,10.78,1.48,4.12,2.22,8.58,2.22,13.4s-.74,9.07-2.22,13.12-3.61,7.59-6.39,10.6c-2.78,3.01-6.17,5.37-10.18,7.08-4.01,1.71-8.58,2.57-13.7,2.57s-9.61-.86-13.65-2.57c-4.04-1.71-7.45-4.07-10.23-7.08-2.78-3.01-4.91-6.54-6.39-10.6-1.48-4.06-2.22-8.43-2.22-13.12s.74-9.28,2.22-13.4ZM139.36,41.9c.65,2.56,1.68,4.86,3.1,6.9,1.42,2.04,3.27,3.68,5.55,4.92,2.28,1.23,5.06,1.85,8.33,1.85s6.05-.62,8.33-1.85c2.28-1.23,4.13-2.87,5.55-4.92,1.42-2.04,2.45-4.34,3.1-6.9.65-2.56.97-5.19.97-7.89s-.32-5.56-.97-8.21c-.65-2.65-1.68-5.01-3.1-7.08-1.42-2.07-3.27-3.73-5.55-4.96-2.28-1.23-5.06-1.85-8.33-1.85s-6.05.62-8.33,1.85c-2.28,1.23-4.14,2.89-5.55,4.96-1.42,2.07-2.45,4.44-3.1,7.08-.65,2.65-.97,5.38-.97,8.21s.32,5.34.97,7.89Z"/>
      <path d="M212.35,1.53v24.72h26.75V1.53h14.53v64.41h-14.53v-27.78h-26.75v27.78h-14.53V1.53h14.53Z"/>
      <path d="M258.35,1.53h16.29l15.46,25.44,15.37-25.44h16.2l-24.53,39.69v24.72h-14.53v-25.08L258.35,1.53Z"/>
      <path d="M374.89,61.02c-5,4.24-11.91,6.36-20.73,6.36s-15.88-2.1-20.78-6.31c-4.91-4.21-7.36-10.7-7.36-19.48V1.53h14.53v40.05c0,1.75.15,3.46.46,5.14.31,1.68.96,3.17,1.94,4.47.99,1.29,2.36,2.34,4.12,3.16,1.76.81,4.12,1.22,7.08,1.22,5.18,0,8.76-1.13,10.74-3.38,1.97-2.26,2.96-5.79,2.96-10.6V1.53h14.53v40.05c0,8.72-2.5,15.2-7.5,19.44Z"/>
      <path d="M408.49,1.53v26.7l25.83-26.7h18.14l-25.83,25.44,28.33,38.97h-18.24l-19.9-28.96-8.33,8.21v20.75h-14.53V1.53h14.53Z"/>
      <path d="M527.07,18.72c-.87-1.35-1.94-2.54-3.24-3.56-1.3-1.02-2.76-1.82-4.4-2.39-1.64-.57-3.35-.86-5.14-.86-3.27,0-6.05.62-8.33,1.85-2.28,1.23-4.13,2.89-5.55,4.96-1.42,2.07-2.45,4.44-3.1,7.08-.65,2.65-.97,5.38-.97,8.21s.32,5.34.97,7.89c.65,2.56,1.68,4.86,3.1,6.9,1.42,2.04,3.27,3.68,5.55,4.92,2.28,1.23,5.06,1.85,8.33,1.85,4.44,0,7.92-1.32,10.41-3.97,2.5-2.65,4.03-6.13,4.58-10.46h14.07c-.37,4.03-1.33,7.67-2.87,10.91-1.54,3.25-3.58,6.01-6.11,8.3-2.53,2.29-5.49,4.03-8.89,5.23-3.39,1.2-7.13,1.8-11.2,1.8-5.06,0-9.61-.86-13.65-2.57-4.04-1.71-7.45-4.07-10.23-7.08-2.78-3.01-4.91-6.54-6.39-10.6-1.48-4.06-2.22-8.43-2.22-13.12s.74-9.28,2.22-13.4c1.48-4.12,3.61-7.71,6.39-10.78,2.78-3.07,6.19-5.47,10.23-7.22,4.04-1.74,8.59-2.62,13.65-2.62,3.64,0,7.08.51,10.32,1.53,3.24,1.02,6.14,2.51,8.7,4.46,2.56,1.96,4.67,4.38,6.34,7.26s2.71,6.19,3.15,9.92h-14.07c-.25-1.62-.8-3.11-1.67-4.46Z"/>
      <path d="M566.87,1.53v24.72h26.75V1.53h14.53v64.41h-14.53v-27.78h-26.75v27.78h-14.53V1.53h14.53Z"/>
      <path d="M634.53,1.53v64.41h-14.53V1.53h14.53Z"/>
      <path d="M660.82,1.53l27.58,43.21h.18V1.53h13.61v64.41h-14.53l-27.49-43.12h-.19v43.12h-13.61V1.53h14.44Z"/>
    </g>
  </g>
</svg>